# xmcd CD database file
#
# Track frame offsets:
#	182
#	14752
#	29710
#	44767
#	59475
#	73305
#	87702
#	100140
#	114037
#	128202
#	143547
#	157080
#	172600
#	188390
#	201857
#	215440
#	228722
#	242987
#	255672
#	269997
#	284025
#
# Disc length: 3992 seconds
#
# Revision: 0
# Processed by: cddbd v1.5.1PL2 Copyright (c) Steve Scherf et al.
# Submitted via: CDex 1.51
#
DISCID=4d0f9615
DTITLE=Duke Ellington and his Orcestra - 1940 Vol 2
DYEAR=1995
DGENRE=Jazz
TTITLE0=There Shall Be No Night
TTITLE1=In a Mellotone
TTITLE2=Five O'Clock Whistle
TTITLE3=Warm Valley
TTITLE4=Pitter Panther Patter
TTITLE5=Body and Soul
TTITLE6=Sophisticated Lady
TTITLE7=Mr. J. B. Blues
TTITLE8=The Flaming Sword
TTITLE9=Warm Valley
TTITLE10=Across the Track Blues
TTITLE11=Chloe (Song of the Swamp)
TTITLE12=I Never Felt This Way Before
TTITLE13=Day Dream
TTITLE14=Good Queen Bess
TTITLE15=That's the Blues, Old Man
TTITLE16=Junior Hop
TTITLE17=Without a Song
TTITLE18=My Sunday Gal
TTITLE19=Mobile Blues
TTITLE20=Linger Awhile
EXTD=YEAR: 1995
EXTT0=
EXTT1=
EXTT2=
EXTT3=
EXTT4=
EXTT5=
EXTT6=
EXTT7=
EXTT8=
EXTT9=
EXTT10=
EXTT11=
EXTT12=
EXTT13=
EXTT14=
EXTT15=
EXTT16=
EXTT17=
EXTT18=
EXTT19=
EXTT20=
PLAYORDER=
